<svg xmlns="http://www.w3.org/2000/svg" viewBox="0 0 96 96" shape-rendering="crispEdges">
  <rect x="22" y="84" width="52" height="5" fill="#173b24" opacity=".34"/>
  <rect x="42" y="57" width="12" height="23" fill="#6b4a31"/>
  <rect x="54" y="62" width="5" height="18" fill="#4a3223"/>
  <rect x="34" y="13" width="28" height="16" fill="#88c66a"/>
  <rect x="23" y="25" width="42" height="23" fill="#69aa56"/>
  <rect x="52" y="30" width="24" height="21" fill="#5a9749"/>
  <rect x="17" y="47" width="58" height="17" fill="#4f843e"/>
  <rect x="29" y="29" width="11" height="7" fill="#a3d980"/>
  <rect x="59" y="37" width="8" height="7" fill="#477a3a"/>
  <rect x="33" y="66" width="30" height="17" fill="#8f9997"/>
  <rect x="38" y="61" width="19" height="5" fill="#aab3ad"/>
  <rect x="40" y="72" width="16" height="3" fill="#eef1df"/>
  <rect x="42" y="77" width="12" height="3" fill="#eef1df"/>
  <rect x="62" y="69" width="5" height="14" fill="#65736f"/>
  <rect x="29" y="79" width="38" height="4" fill="#52615b"/>
</svg>
