<svg xmlns="http://www.w3.org/2000/svg" viewBox="0 0 96 96" shape-rendering="crispEdges">
  <rect x="22" y="84" width="52" height="5" fill="#173b24" opacity=".34"/>
  <rect x="43" y="56" width="12" height="27" fill="#684931"/>
  <rect x="31" y="14" width="31" height="17" fill="#90c96b"/>
  <rect x="21" y="28" width="48" height="21" fill="#69aa56"/>
  <rect x="14" y="46" width="59" height="18" fill="#4d873e"/>
  <rect x="35" y="33" width="12" height="7" fill="#a9db7e"/>
  <rect x="58" y="48" width="9" height="8" fill="#3f7836"/>
  <rect x="28" y="67" width="39" height="5" fill="#5f6f60"/>
  <rect x="31" y="60" width="32" height="7" fill="#d6dfd0"/>
  <rect x="34" y="55" width="26" height="5" fill="#9aa69f"/>
  <rect x="35" y="70" width="24" height="3" fill="#eef1df"/>
  <rect x="35" y="75" width="18" height="3" fill="#eef1df"/>
  <rect x="35" y="80" width="28" height="4" fill="#5d6b61"/>
  <rect x="25" y="73" width="8" height="5" fill="#6ca35b"/>
  <rect x="65" y="71" width="8" height="5" fill="#6ca35b"/>
</svg>
